<svg xmlns="http://www.w3.org/2000/svg" viewBox="0 0 512 512">
  <path d="M359 165H153l103 88 103-88z"/>
  <path d="M256 273.911c-2.186 0-4.3-.782-5.958-2.205L137 175v172h238V175l-113.042 96.706a9.148 9.148 0 01-5.958 2.205z"/>
  <path d="M256 0C114.617 0 0 114.617 0 256c0 141.383 114.617 256 256 256 141.383 0 256-114.617 256-256C511.84 114.683 397.317.16 256 0zm137.143 356.571a9.14 9.14 0 01-9.143 9.143H128a9.142 9.142 0 01-9.143-9.143V155.429a9.14 9.14 0 019.143-9.143h256a9.142 9.142 0 019.143 9.143v201.142z"/>
</svg>