<svg xmlns="http://www.w3.org/2000/svg" viewBox="0 0 58 58"><path d="M51.5 39V13.978c0-.766-.092-1.333-.55-1.792L39.313.55A1.891 1.891 0 0037.985 0H8.963C7.777 0 6.5.916 6.5 2.926V39h45zm-14-35.609c0-.458.553-.687.877-.363l10.095 10.095a.513.513 0 01-.363.877H37.5V3.391zm-2.707 15.316a.999.999 0 111.414-1.414l6 6a.999.999 0 010 1.414l-6 6a.997.997 0 01-1.414 0 .999.999 0 010-1.414L40.086 24l-5.293-5.293zm-18 4.586l6-6a.999.999 0 111.414 1.414L18.914 24l5.293 5.293a.999.999 0 11-1.414 1.414l-6-6a.999.999 0 010-1.414zM6.5 41v15c0 1.009 1.22 2 2.463 2h40.074c1.243 0 2.463-.991 2.463-2V41h-45zm11.955 13h-1.641v-4.539h-4.361V54h-1.668V43.924h1.668v4.416h4.361v-4.416h1.641V54zm9.652-8.955H25.1V54h-1.654v-8.955h-3.008v-1.121h7.67v1.121zM39.373 54h-1.668v-6.932l-2.256 5.605H34l-2.27-5.605V54h-1.668V43.924h1.668l2.994 6.891 2.98-6.891h1.668V54zm8.832 0h-6.303V43.924h1.668v8.832h4.635V54z"/></svg>