<svg xmlns="http://www.w3.org/2000/svg" viewBox="0 0 118 118">
  <g data-name="Grupo 3851" transform="translate(-1427 -885)">
    <circle data-name="Elipse 307" cx="59" cy="59" r="59" transform="translate(1427 885)" fill="#33c72d"/>
    <g data-name="Grupo 3796">
      <g data-name="Grupo 3795">
        <path data-name="Caminho 1412" d="M1510.992 916.627a35.259 35.259 0 00-55.49 42.526l-5 18.264 18.69-4.9a35.235 35.235 0 0016.848 4.29h.015a35.258 35.258 0 0024.939-60.179zm-24.939 54.227h-.012a29.267 29.267 0 01-14.915-4.084l-1.07-.635-11.088 2.909 2.96-10.81-.7-1.108a29.3 29.3 0 1124.824 13.728zm16.074-21.94c-.881-.44-5.212-2.571-6.02-2.865s-1.395-.441-1.982.441-2.275 2.865-2.79 3.453-1.027.661-1.908.22a24.06 24.06 0 01-7.084-4.371 26.537 26.537 0 01-4.9-6.1c-.514-.882-.055-1.358.386-1.8.4-.395.881-1.029 1.321-1.543a6.026 6.026 0 00.881-1.469 1.621 1.621 0 00-.074-1.543c-.22-.441-1.982-4.776-2.716-6.539-.715-1.718-1.441-1.485-1.982-1.512-.513-.025-1.1-.031-1.688-.031a3.236 3.236 0 00-2.349 1.1 9.874 9.874 0 00-3.084 7.349c0 4.335 3.157 8.522 3.6 9.11s6.212 9.483 15.048 13.3a50.552 50.552 0 005.022 1.855 12.078 12.078 0 005.549.349c1.693-.253 5.212-2.131 5.946-4.188a7.363 7.363 0 00.514-4.188c-.223-.367-.81-.587-1.69-1.028z" fill="#fff"/>
      </g>
    </g>
  </g>
</svg>