<svg width="800" height="800" fill="none" xmlns="http://www.w3.org/2000/svg"><rect width="800" height="800" rx="50" fill="#000"/><path d="M253.561 659.494l242.782-541.936a28.021 28.021 0 0114.706-14.369 27.995 27.995 0 0120.549-.456 28.02 28.02 0 0115.329 13.702 28.044 28.044 0 011.856 20.483l-1.344 3.588-242.782 541.936a28.021 28.021 0 01-14.706 14.369 27.995 27.995 0 01-20.549.456 28.016 28.016 0 01-15.329-13.702 28.044 28.044 0 01-1.856-20.483l1.344-3.588zM35.207 380.191L193.95 221.348a28.005 28.005 0 0138.014-1.339 28.046 28.046 0 014.305 37.817l-2.727 3.139L94.595 400l138.946 139.035a28.04 28.04 0 011.339 38.038 28 28 0 01-37.794 4.307l-3.137-2.728L35.207 419.809a28.04 28.04 0 01-2.726-36.478l2.726-3.14zM567.46 221.348a28.002 28.002 0 0136.454-2.728l3.138 2.728 158.742 158.843a28.04 28.04 0 012.726 36.478l-2.726 3.14-158.742 158.843a28.01 28.01 0 01-18.745 8.116 28.003 28.003 0 01-19.269-6.777 28.046 28.046 0 01-4.305-37.817l2.727-3.139L706.405 400 567.459 260.965a28.04 28.04 0 010-39.617z" fill="#43A047"/></svg>